<svg xmlns="http://www.w3.org/2000/svg" viewBox="0 0 256 257">
  <defs>
    <linearGradient id="a" x1="100%" x2="0%" y1="0%" y2="100%">
      <stop offset="0%" stop-color="#ffea83" />
      <stop offset="8.333%" stop-color="#ffdd35" />
      <stop offset="100%" stop-color="#ffa800" />
    </linearGradient>
    <linearGradient id="b" x1="100%" x2="0%" y1="0%" y2="100%">
      <stop offset="0%" stop-color="#64b5ff" />
      <stop offset="100%" stop-color="#4e8cff" />
    </linearGradient>
  </defs>
  <path fill="url(#a)" d="M255.153 37.938L134.897 252.976c-2.483 4.445-8.856 4.466-11.374.039L.862 37.958C-1.889 33.216 2.506 27.45 7.88 28.722l120.936 28.485a6.5 6.5 0 0 0 3.025-.001l115.418-28.46c5.362-1.323 9.776 4.407 7.046 9.15" />
  <path fill="url(#b)" d="M185.432.063L96.44 24.56a6.5 6.5 0 0 0-4.666 4.897l-17.75 99.417a6.5 6.5 0 0 0 8.167 7.301l49.889-13.818a6.5 6.5 0 0 1 7.975 7.605l-14.804 72.297c-1.277 6.239 7.39 9.33 10.666 3.593L226.69 16.873C229.744 11.593 223.86 5.56 217.988 7.19l-46.899 13.19a6.5 6.5 0 0 1-8.127-5.692l-.428-10.625A3.25 3.25 0 0 0 185.432.063" />
</svg>
